<?xml version="1.0" encoding="utf-8"?>
<!-- Generator: Adobe Illustrator 17.0.0, SVG Export Plug-In . SVG Version: 6.00 Build 0)  -->
<!DOCTYPE svg PUBLIC "-//W3C//DTD SVG 1.1//EN" "http://www.w3.org/Graphics/SVG/1.1/DTD/svg11.dtd">
<svg version="1.1" id="图层_1" xmlns="http://www.w3.org/2000/svg" xmlns:xlink="http://www.w3.org/1999/xlink" x="0px" y="0px"
	 width="114.615px" height="110.634px" viewBox="0 0 114.615 110.634" enable-background="new 0 0 114.615 110.634"
	 xml:space="preserve">
<path fill="#300203" d="M57.197,0C27.281,0,2.683,21.339,0.059,48.463H0v62.171h14.76V49.031h0.038
	c2.281-19.839,20.42-35.341,42.399-35.341c23.519,0,42.652,17.75,42.652,39.562S80.716,92.812,57.197,92.812
	c-12.659,0-24.014-5.175-31.836-13.33v18.06c9.116,5.659,20.069,8.961,31.836,8.961c31.661,0,57.418-23.889,57.418-53.249
	C114.615,23.883,88.858,0,57.197,0z"/>
<path fill="#ED7600" d="M56.498,86.458c19.957,0,36.137-15.006,36.137-33.518c0-18.513-16.18-33.521-36.137-33.521
	c-19.954,0-36.132,15.008-36.132,33.521C20.365,71.452,36.543,86.458,56.498,86.458z M31.365,56.114
	c0-6.925,6.052-12.532,13.511-12.532c4.941,0,9.265,2.463,11.622,6.137c2.357-3.674,6.679-6.137,11.628-6.137
	c7.46,0,13.513,5.607,13.513,12.532c0,0.142,0,0.537,0,0.601c0,12.88-11.259,23.319-25.142,23.319
	c-13.883,0-25.139-10.439-25.139-23.319C31.358,56.651,31.365,56.256,31.365,56.114z"/>
<g>
	<g>
		<g>
			<path fill="#300203" d="M47.254,51.703c0,2.411-2.109,4.369-4.71,4.369c-2.601,0-4.702-1.958-4.702-4.369
				c0-2.408,2.101-4.365,4.702-4.365C45.145,47.338,47.254,49.295,47.254,51.703z"/>
		</g>
		<g>
			<path fill="#300203" d="M75.16,51.703c0,2.411-2.103,4.369-4.702,4.369c-2.597,0-4.712-1.958-4.712-4.369
				c0-2.408,2.115-4.365,4.712-4.365C73.057,47.338,75.16,49.295,75.16,51.703z"/>
		</g>
	</g>
</g>
</svg>
