<?xml version="1.0" encoding="utf-8"?>
<!-- Generator: Adobe Illustrator 17.0.0, SVG Export Plug-In . SVG Version: 6.00 Build 0)  -->
<!DOCTYPE svg PUBLIC "-//W3C//DTD SVG 1.1//EN" "http://www.w3.org/Graphics/SVG/1.1/DTD/svg11.dtd">
<svg version="1.1" id="图层_1" xmlns="http://www.w3.org/2000/svg" xmlns:xlink="http://www.w3.org/1999/xlink" x="0px" y="0px"
	 width="96.045px" height="22.828px" viewBox="0 0 96.045 22.828" enable-background="new 0 0 96.045 22.828" xml:space="preserve">
<g>
	<g opacity="0.36">
		
			<image overflow="visible" width="168" height="96" xlink:href="527F97F9E700B1C2.png"  transform="matrix(1 0 0 1 -35.6494 -36.5068)">
		</image>
	</g>
	<g>
		<g>
			<g>
				<path fill="#F7F7F7" d="M31.881,17.358l-1.024-0.936l3.872-4.061V8.95l-0.356-1.13l-0.377-0.542l-2.296,2.693L30.61,9.106
					l2.583-3.023l-2.001-2.951l1.156-0.739l1.754,2.629l2.184-2.587l1.09,0.869l-2.472,2.911l0.758,1.107l0.446,1.519v11.71
					l-1.135,1.13h-3.252v-1.372h2.673l0.333-0.323v-5.629L31.881,17.358z M40.607,21.789h-1.403v-9.858l-0.332-0.329h-1.358
					l-0.829-1.304l4.298-8.363l1.248,0.607l-3.941,7.689h1.157l1.16,1.132V21.789z M41.786,21.896l-0.89-1.041l4.541-3.716l0.4-0.91
					h-4.497V14.88h4.52v-2.496h-3.648l-0.783-1.285l1.378-2.451L44.033,9.3l-0.977,1.734H51v1.35h-3.735v2.496h4.516v1.349h-4.516
					v0.26l-0.671,1.498L41.786,21.896z M51.781,8.253H41.339V6.889h7.503V4.431l-0.334-0.303h-5.586V2.763h6.166l1.155,1.13v2.996
					h1.538V8.253z M51.359,21.896l-4.094-3.258l0.885-1.062l4.077,3.279L51.359,21.896z"/>
				<path fill="#F7F7F7" d="M41.761,22.167l-0.96-1.12v0.933h-1.794v-9.973l-0.219-0.215h-1.384l-0.942-1.486l0.053-0.095
					l4.385-8.534l1.595,0.78l-0.087,0.172l-3.796,7.414h0.918l1.271,1.239v9.397l4.476-3.658l0.26-0.602h-4.392v-1.731h4.52v-2.112
					h-3.569l-0.895-1.47l1.496-2.66h-1.552v-1.75h7.504V4.515l-0.216-0.195h-5.71V2.567h6.445l1.276,1.244v2.885h1.535v1.75h-9.134
					L44.3,9.222l-0.914,1.624H51.2v1.73H47.46v2.112h4.518v1.731H47.46l-0.018,0.143l-0.724,1.567L41.761,22.167z M41.172,20.88
					l0.637,0.745l4.624-3.758l0.634-1.421v-0.411h4.518v-0.96h-4.518v-2.883h3.739v-0.963H42.72l1.049-1.855l-0.881-0.466
					l-1.233,2.19l0.668,1.094h3.736v2.883h-4.52v0.96h4.601l-0.576,1.253L41.172,20.88z M39.402,21.598h1.007V11.443l-1.043-1.019
					h-1.392l3.994-7.796l-0.895-0.436l-4.158,8.093l0.705,1.125h1.331l0.451,0.435V21.598z M41.538,8.064h10.047V7.079h-1.537v-3.11
					l-1.042-1.015h-5.889v0.983h5.468l0.455,0.411v2.73h-7.502V8.064z M51.388,22.167l-4.404-3.504l1.142-1.361l4.379,3.525
					L51.388,22.167z M47.541,18.609l3.789,3.016l0.62-0.744l-3.771-3.036L47.541,18.609z M35.055,21.872h-3.53v-1.755h2.789
					l0.217-0.216v-5.053l-2.64,2.781l-1.314-1.196l3.954-4.15V8.979l-0.339-1.073l-0.215-0.308l-2.249,2.644l-1.398-1.11
					l2.617-3.059l-2.033-2.999l1.489-0.947l1.722,2.568l2.134-2.53l1.395,1.112l-2.503,2.947l0.7,1.043l0.455,1.573v11.787
					L35.055,21.872z M31.921,21.487h2.973l1.02-1.017V8.869l-0.431-1.464l-0.821-1.208l0.091-0.109l2.347-2.759l-0.785-0.624
					L34.088,5.34l-1.796-2.681l-0.828,0.526l1.974,2.913l-2.55,2.977l0.786,0.628l2.335-2.743l0.552,0.804l0.364,1.186v3.486
					l-3.791,3.976l0.735,0.673l3.056-3.215v6.194l-0.447,0.436h-2.557V21.487z"/>
			</g>
			<g>
				<path fill="#F7F7F7" d="M54.744,21.808l-1.112-0.825l3.2-4.062l-1.602-2.064l-0.486-1.517V7.341h-1.159V5.998h1.159V2.434h1.401
					v3.564h3.116V2.434h1.382L60.62,5.998h1.492v1.343H60.62v6.215l-0.559,1.501l-1.49,1.888l3.182,4.038l-1.11,0.825l-2.938-3.756
					L54.744,21.808z M56.501,14.317l1.18,1.517l1.202-1.517l0.378-1.089V7.341h-3.116v5.888L56.501,14.317z M73.756,12.666h-4.612
					v7.795L68.01,21.59h-4.386v-1.366h3.808l0.337-0.326v-7.231h-5.678v-1.347h5.678l0.021-1.978l0.536-1.496l2.891-3.936h-7.924
					V2.567h8.973l0.71,1.325l-3.45,4.667l-0.38,1.085v1.675h4.612V12.666z"/>
				<path fill="#F7F7F7" d="M60.603,22.081l-2.901-3.714l-2.921,3.714l-1.429-1.061l3.238-4.101l-1.544-2.005l-0.497-1.575V7.534
					h-1.162V5.804h1.162V2.242h1.794v3.562h2.724V2.242h1.774l-0.021,3.562h1.488v1.731h-1.49l-0.01,6.085l-0.586,1.552
					l-1.399,1.774l3.21,4.076L60.603,22.081z M53.907,20.949l0.795,0.591l3.003-3.805l2.975,3.805l0.8-0.591l-3.158-4.005
					l1.566-1.984l0.536-1.438V7.151h1.491V6.189h-1.491l0.022-3.562h-0.988v3.562h-3.511V2.627H54.94v3.562h-1.158v0.962h1.158
					v6.159l0.472,1.456l1.673,2.158L53.907,20.949z M68.095,21.782h-4.668V20.03h3.925l0.219-0.213v-6.963h-5.678v-1.726h5.678
					l0.033-1.847l0.56-1.551l2.666-3.627h-7.737v-1.73h9.288l0.826,1.534l-3.504,4.741l-0.361,1.027v1.452h4.607v1.726h-4.607v7.685
					L68.095,21.782z M63.822,21.397h4.106l1.021-1.018v-7.907h4.609v-0.962h-4.609l0.01-1.93l0.411-1.135l3.376-4.57l-0.604-1.118
					h-8.656v0.964h8.117l-3.102,4.211l-0.512,1.441l-0.028,2.137h-5.673v0.962h5.674v7.501l-0.45,0.44h-3.69V21.397z M57.681,16.151
					l-1.367-1.777l-0.367-1.146V7.151h3.511l-0.01,6.142l-0.409,1.142L57.681,16.151z M56.679,14.222l1.005,1.298l1.024-1.298
					l0.358-1.024V7.534h-2.724v5.664L56.679,14.222z"/>
			</g>
			<g>
				<path fill="#F7F7F7" d="M80.189,22.069h-1.403v-9.012l-0.335-0.329h-2.158l-0.778-1.278l5.294-9.361l1.228,0.649l-4.874,8.645
					h1.869l1.157,1.107V22.069z M95.419,21.506H81.789v-1.349h13.631V21.506z M95.238,6.519H81.949V5.148h5.945V2.501h1.4v2.647
					h5.944V6.519z M89.34,19.221h-1.469L83.13,9.405l1.266-0.565l4.208,8.713l4.208-8.713l1.246,0.565L89.34,19.221z"/>
				<path fill="#F7F7F7" d="M80.386,22.264h-1.798v-9.128l-0.217-0.215h-2.189l-0.893-1.471l0.053-0.094l5.394-9.527l1.569,0.832
					l-4.809,8.528h1.617l1.274,1.222V22.264z M78.983,21.876h1.01v-9.302l-1.043-0.998h-2.123l4.941-8.759L80.89,2.347l-5.152,9.097
					l0.67,1.096h2.129l0.446,0.439V21.876z M95.614,21.698H81.593v-1.731h14.021V21.698z M81.987,21.312h13.235v-0.962H81.987
					V21.312z M89.465,19.416h-1.722L82.865,9.312l1.625-0.726l4.114,8.518l4.112-8.518l1.604,0.726L89.465,19.416z M87.994,19.029
					h1.222l4.58-9.531l-0.89-0.401l-4.302,8.907l-4.301-8.907l-0.912,0.402L87.994,19.029z M95.435,6.711H81.752V4.96h5.945V2.309
					h1.794V4.96h5.944V6.711z M82.146,6.326H95.04V5.34h-5.943V2.694h-1.008V5.34h-5.943V6.326z"/>
			</g>
		</g>
		<g>
			<g>
				<path fill="#FFFFFF" d="M11.748,0C5.603,0,0.55,4.383,0.013,9.956H0v12.768h3.032V10.071H3.04
					c0.469-4.076,4.193-7.258,8.708-7.258c4.83,0,8.761,3.646,8.761,8.125c0,4.48-3.93,8.125-8.761,8.125
					c-2.601,0-4.933-1.062-6.539-2.736v3.708c1.872,1.161,4.123,1.841,6.539,1.841c6.504,0,11.793-4.904,11.793-10.937
					C23.542,4.906,18.252,0,11.748,0z"/>
				<path fill="#FFFFFF" d="M11.604,17.76c4.098,0,7.423-3.085,7.423-6.885c0-3.804-3.325-6.886-7.423-6.886
					c-4.101,0-7.42,3.082-7.42,6.886C4.184,14.675,7.504,17.76,11.604,17.76z M6.443,11.526c0-1.422,1.241-2.572,2.775-2.572
					c1.013,0,1.903,0.502,2.386,1.26c0.483-0.758,1.372-1.26,2.389-1.26c1.533,0,2.775,1.15,2.775,2.572c0,0.029,0,0.11,0,0.124
					c0,2.645-2.312,4.788-5.164,4.788c-2.852,0-5.164-2.143-5.164-4.788C6.44,11.637,6.443,11.556,6.443,11.526z"/>
			</g>
			<g>
				<g>
					<g>
						<path fill="#FFFFFF" d="M9.707,10.62c0,0.497-0.433,0.898-0.969,0.898c-0.533,0-0.965-0.401-0.965-0.898
							c0-0.493,0.433-0.897,0.965-0.897C9.274,9.724,9.707,10.127,9.707,10.62z"/>
					</g>
					<g>
						<path fill="#FFFFFF" d="M15.436,10.62c0,0.497-0.431,0.898-0.966,0.898c-0.533,0-0.966-0.401-0.966-0.898
							c0-0.493,0.434-0.897,0.966-0.897C15.006,9.724,15.436,10.127,15.436,10.62z"/>
					</g>
				</g>
			</g>
		</g>
	</g>
</g>
</svg>
